<svg width="6134" height="2979" viewBox="0 0 6134 2979" fill="none" xmlns="http://www.w3.org/2000/svg">
<rect width="6134" height="2979" fill="none"/>
<path d="M2718 1867.35V1111.65H2921.56V1867.35H2718Z" fill="#0D2C99"/>
<path d="M3632.4 1111.65H3838.17L3483.04 1867.35H3321.52L2966.39 1111.65H3177.7L3404.49 1621.88L3632.4 1111.65Z" fill="#0D2C99"/>
<path d="M4398.96 1867.35L4329.26 1710.85H3984.09L3914.39 1867.35H3709.73L4073.7 1111.65H4235.22L4600.31 1867.35H4398.96ZM4049.36 1562.93H4263.99L4156.68 1320.67L4049.36 1562.93Z" fill="#0D2C99"/>
<path d="M4996.58 1877C4916.92 1877 4847.59 1861.28 4788.59 1829.84C4730.32 1797.68 4685.33 1752.66 4653.62 1694.77C4621.91 1636.17 4606.05 1567.57 4606.05 1488.96C4606.05 1410.36 4621.91 1342.11 4653.62 1284.23C4685.33 1225.63 4730.32 1180.61 4788.59 1149.16C4847.59 1117.72 4916.92 1102 4996.58 1102C5076.23 1102 5145.19 1117.72 5203.46 1149.16C5262.46 1180.61 5307.45 1225.63 5338.43 1284.23C5370.14 1342.11 5386 1410.36 5386 1488.96C5386 1567.57 5370.14 1636.17 5338.43 1694.77C5306.71 1752.66 5261.36 1797.68 5202.35 1829.84C5144.09 1861.28 5075.49 1877 4996.58 1877ZM4996.58 1725.86C5055.58 1725.86 5101.68 1705.85 5134.87 1665.83C5168.06 1625.1 5184.65 1566.14 5184.65 1488.96C5184.65 1411.79 5167.69 1353.19 5133.76 1313.17C5100.57 1273.15 5054.84 1253.14 4996.58 1253.14C4937.57 1253.14 4891.48 1273.15 4858.29 1313.17C4825.1 1352.47 4808.5 1411.07 4808.5 1488.96C4808.5 1566.86 4825.1 1625.81 4858.29 1665.83C4891.48 1705.85 4937.57 1725.86 4996.58 1725.86Z" fill="#0D2C99"/>
<path d="M1491 2214C1891.41 2214 2216 1889.41 2216 1489C2216 1088.59 1891.41 764 1491 764C1090.59 764 766 1088.59 766 1489C766 1889.41 1090.59 2214 1491 2214Z" stroke="#0D2C99" stroke-width="50" stroke-miterlimit="10"/>
<path fill-rule="evenodd" clip-rule="evenodd" d="M1360.08 1659.66C1360.35 1659.62 1402.39 1654.28 1407.31 1654.07C1407.9 1654.04 1408.67 1654.01 1409.58 1653.97C1413.69 1653.8 1420.51 1653.52 1425.14 1653.2C1427.9 1653.01 1431.18 1650.72 1431.34 1647.96C1431.45 1646.06 1431.47 1643.75 1431.49 1641.37C1431.5 1639.64 1431.52 1637.88 1431.57 1636.21C1431.57 1628.94 1430.77 1617.06 1430.33 1614.31C1430.3 1614.14 1430.22 1613.93 1430.12 1613.78C1429.84 1613.34 1429.34 1613.2 1428.82 1613.2H1419.54C1418.08 1613.2 1418.04 1616.86 1418.24 1619.04C1418.25 1619.16 1418.26 1619.28 1418.26 1619.4C1418.31 1621.23 1418.69 1636.13 1418.69 1638.15C1418.69 1640.3 1414.61 1642.02 1409.45 1641.81C1404.34 1641.59 1359.92 1639.05 1359.22 1639.01C1359.2 1639.01 1359.23 1639.01 1359.21 1639.01C1358.51 1638.98 1266.65 1634.92 1257.02 1634.49C1247.36 1634.06 1245.86 1619.86 1246.07 1608.89C1246.21 1601.69 1247.84 1594.68 1248.93 1590.71C1249.49 1588.69 1251.32 1587.35 1253.41 1587.3L1265.27 1587.03C1266.97 1586.99 1268.3 1585.53 1268.18 1583.83C1268.06 1582.21 1266.69 1580.99 1265.07 1581.05L1236.71 1582.27C1234.39 1582.37 1232.5 1584.08 1231.49 1586.16C1230.53 1588.15 1228.96 1590.18 1226.54 1590.18C1224.83 1590.18 1223.74 1589.25 1223.04 1588.07C1221.61 1585.63 1219.46 1583.17 1216.63 1583.27L1214.89 1583.33C1212.17 1583.43 1210.03 1585.68 1210.08 1588.39C1210.16 1593.66 1210.3 1601.85 1210.44 1605.88C1210.44 1612.34 1207.64 1618.36 1203.56 1618.57C1201.53 1618.66 1200.19 1617.55 1199.32 1616.21C1197.9 1614.03 1195.77 1611.99 1193.17 1612.1L1181.95 1612.57C1179.27 1612.68 1177.21 1614.92 1176.47 1617.5C1175.75 1619.95 1174.3 1622.45 1171.36 1622.45C1168.39 1622.67 1166.71 1620.23 1165.79 1617.8C1164.84 1615.32 1162.62 1613.27 1159.96 1613.37L1097.63 1615.61C1095.3 1615.69 1093.63 1617.62 1092.07 1619.43C1091.88 1619.65 1091.69 1619.87 1091.5 1620.08C1090.94 1620.71 1090.18 1621.16 1089.13 1621.16C1087.64 1621.16 1086.47 1620.33 1085.61 1619.35C1084.17 1617.71 1082.29 1616.25 1080.11 1616.31L1054.76 1617C1053.28 1617.05 1051.85 1616.43 1050.87 1615.32L1049.39 1613.64C1047.44 1611.44 1044.01 1611.37 1041.81 1613.32C1037.86 1616.83 1031.74 1621.51 1027.3 1621.37C1020.22 1621.37 1008.62 1611.69 1004.12 1601.58C1001.89 1596.6 1000.77 1592.35 1000.2 1589.32C999.685 1586.61 997.463 1584.37 994.707 1584.36C969.118 1584.28 851.587 1583.94 840.307 1583.94C827.64 1583.73 826.352 1551.03 827.21 1553.18C827.749 1554.53 829.555 1559.35 830.827 1562.76C831.61 1564.86 833.689 1566.18 835.921 1566L1009.56 1551.88C1011.13 1551.75 1012.55 1550.89 1013.59 1549.7C1016.04 1546.94 1021.42 1542.17 1029.88 1541.57C1037.92 1540.99 1043.46 1544.74 1046.25 1547.29C1047.64 1548.56 1049.51 1549.34 1051.37 1549.04L1198.95 1525.19C1200.5 1524.94 1201.85 1523.97 1202.75 1522.68C1205.78 1518.34 1214.09 1508.77 1228.68 1508.44C1237.76 1508.09 1242.57 1510.65 1245.05 1513.03C1246.93 1514.84 1249.65 1516.47 1252.21 1516.01C1406.09 1488.75 1420.51 1472.61 1421.79 1470.41C1421.89 1470.24 1421.92 1470.06 1421.94 1469.86C1422.2 1467.32 1424.05 1448.04 1424.05 1419.82C1424.05 1307.32 1471.5 1243 1490.61 1243C1490.68 1243 1490.75 1243.01 1490.82 1243.02C1490.89 1243.01 1490.97 1243 1491.04 1243C1510.14 1243 1557.59 1307.32 1557.59 1419.82C1557.59 1448.04 1559.45 1467.32 1559.71 1469.86C1559.73 1470.06 1559.76 1470.24 1559.86 1470.41C1561.14 1472.61 1575.56 1488.75 1729.43 1516.01C1732 1516.47 1734.71 1514.84 1736.59 1513.03C1739.08 1510.65 1743.88 1508.09 1752.96 1508.44C1767.55 1508.77 1775.87 1518.34 1778.9 1522.68C1779.8 1523.97 1781.14 1524.94 1782.69 1525.19L1930.28 1549.04C1932.13 1549.34 1934 1548.56 1935.39 1547.29C1938.18 1544.74 1943.73 1540.99 1951.77 1541.57C1960.23 1542.17 1965.61 1546.94 1968.05 1549.7C1969.09 1550.89 1970.51 1551.75 1972.09 1551.88L2145.73 1566C2147.96 1566.18 2150.04 1564.86 2150.82 1562.76C2152.09 1559.35 2153.9 1554.53 2154.44 1553.18C2155.29 1551.03 2154.01 1583.73 2141.34 1583.94C2130.06 1583.94 2012.53 1584.28 1986.94 1584.36C1984.18 1584.37 1981.96 1586.61 1981.45 1589.32C1980.88 1592.35 1979.75 1596.6 1977.53 1601.58C1973.02 1611.69 1961.43 1621.37 1954.34 1621.37C1949.91 1621.51 1943.79 1616.83 1939.83 1613.32C1937.63 1611.37 1934.2 1611.44 1932.26 1613.64L1930.77 1615.32C1929.79 1616.43 1928.37 1617.05 1926.89 1617L1901.54 1616.31C1899.36 1616.25 1897.47 1617.71 1896.03 1619.35C1895.17 1620.33 1894 1621.16 1892.51 1621.16C1891.47 1621.16 1890.7 1620.71 1890.14 1620.08C1889.95 1619.87 1889.76 1619.65 1889.57 1619.43C1888.01 1617.62 1886.34 1615.69 1884.02 1615.61L1821.68 1613.37C1819.02 1613.27 1816.8 1615.32 1815.86 1617.8C1814.93 1620.23 1813.26 1622.67 1810.28 1622.45C1807.34 1622.45 1805.89 1619.95 1805.18 1617.5C1804.43 1614.92 1802.37 1612.68 1799.7 1612.57L1788.48 1612.1C1785.88 1611.99 1783.75 1614.03 1782.33 1616.21C1781.45 1617.55 1780.11 1618.66 1778.08 1618.57C1774 1618.36 1771.21 1612.34 1771.21 1605.88C1771.35 1601.85 1771.49 1593.66 1771.57 1588.39C1771.61 1585.68 1769.47 1583.43 1766.76 1583.33L1765.01 1583.27C1762.18 1583.17 1760.04 1585.63 1758.6 1588.07C1757.91 1589.25 1756.82 1590.18 1755.11 1590.18C1752.69 1590.18 1751.11 1588.15 1750.15 1586.16C1749.14 1584.08 1747.25 1582.37 1744.94 1582.27L1716.57 1581.05C1714.96 1580.99 1713.58 1582.21 1713.47 1583.83C1713.34 1585.53 1714.67 1586.99 1716.38 1587.03L1728.23 1587.3C1730.32 1587.35 1732.16 1588.69 1732.71 1590.71C1733.81 1594.68 1735.43 1601.69 1735.57 1608.89C1735.79 1619.86 1734.28 1634.06 1724.62 1634.49C1715 1634.92 1623.14 1638.98 1622.43 1639.01C1622.41 1639.01 1622.44 1639.01 1622.42 1639.01C1621.72 1639.05 1577.3 1641.59 1572.19 1641.81C1567.04 1642.02 1562.96 1640.3 1562.96 1638.15C1562.96 1636.13 1563.34 1621.23 1563.38 1619.4C1563.39 1619.28 1563.39 1619.16 1563.41 1619.04C1563.6 1616.86 1563.56 1613.2 1562.1 1613.2H1552.82C1552.3 1613.2 1551.8 1613.34 1551.52 1613.78C1551.43 1613.93 1551.35 1614.14 1551.32 1614.31C1550.88 1617.06 1550.08 1628.94 1550.08 1636.21C1550.13 1637.88 1550.14 1639.64 1550.16 1641.37C1550.18 1643.75 1550.2 1646.06 1550.31 1647.96C1550.46 1650.72 1553.75 1653.01 1556.5 1653.2C1561.32 1653.54 1568.51 1653.83 1572.6 1654C1573.27 1654.02 1573.86 1654.05 1574.34 1654.07C1579.26 1654.28 1621.29 1659.62 1621.57 1659.66L1621.57 1659.66L1621.6 1659.66C1623.42 1659.89 1711.55 1670.63 1713.89 1671.06C1716.25 1671.49 1716.03 1675.58 1713.89 1675.58C1713.53 1675.58 1711.54 1675.7 1708.29 1675.9C1691.75 1676.91 1642.59 1679.92 1610.84 1679.02C1577.74 1677.9 1536.91 1676.46 1526.57 1676.09C1525 1676.04 1523.53 1676.71 1522.5 1677.9C1517.9 1683.25 1504.26 1698.22 1493.91 1700.8C1494.5 1701.04 1495.14 1701.17 1495.82 1701.17H1491.04H1490.61H1485.82C1486.5 1701.17 1487.15 1701.04 1487.74 1700.8C1477.38 1698.22 1463.75 1683.25 1459.14 1677.9C1458.12 1676.71 1456.65 1676.04 1455.08 1676.09C1444.74 1676.46 1403.91 1677.9 1370.81 1679.02C1339.05 1679.92 1289.9 1676.91 1273.35 1675.9C1270.1 1675.7 1268.11 1675.58 1267.76 1675.58C1265.61 1675.58 1265.4 1671.49 1267.76 1671.06C1270.12 1670.63 1359.8 1659.69 1360.07 1659.66L1360.08 1659.66ZM1490.82 1696.44C1490.83 1696.29 1490.83 1696.13 1490.83 1695.98C1490.82 1695.96 1490.82 1695.94 1490.82 1695.91C1490.82 1695.94 1490.82 1695.96 1490.82 1695.98C1490.81 1696.13 1490.81 1696.29 1490.82 1696.44Z" fill="#0D2C99"/>
</svg>
