<svg width="4335" height="1568" viewBox="0 0 4335 1568" fill="none" xmlns="http://www.w3.org/2000/svg">
<rect width="4335" height="1568" fill="none"/>
<path d="M1921.62 922.988V217.012H2105.75V922.988H1921.62Z" fill="#3C55AC"/>
<path d="M2748.73 217.012H2934.86L2613.63 922.988H2467.53L2146.3 217.012H2337.44L2542.58 693.671L2748.73 217.012Z" fill="#3C55AC"/>
<path d="M3442.13 922.988L3379.08 776.786H3066.86L3003.81 922.988H2818.68L3147.91 217.012H3294.02L3624.26 922.988H3442.13ZM3125.9 638.595H3320.04L3222.97 412.282L3125.9 638.595Z" fill="#3C55AC"/>
<path d="M3982.7 932C3910.65 932 3847.94 917.313 3794.56 887.939C3741.86 857.898 3701.16 815.84 3672.48 761.765C3643.79 707.023 3629.45 642.934 3629.45 569.499C3629.45 496.065 3643.79 432.31 3672.48 378.235C3701.16 323.493 3741.86 281.435 3794.56 252.061C3847.94 222.687 3910.65 208 3982.7 208C4054.75 208 4117.13 222.687 4169.83 252.061C4223.2 281.435 4263.9 323.493 4291.92 378.235C4320.61 432.31 4334.95 496.065 4334.95 569.499C4334.95 642.934 4320.61 707.023 4291.92 761.765C4263.23 815.84 4222.2 857.898 4168.83 887.939C4116.13 917.313 4054.08 932 3982.7 932ZM3982.7 790.805C4036.07 790.805 4077.77 772.113 4107.79 734.728C4137.81 696.675 4152.82 641.599 4152.82 569.499C4152.82 497.4 4137.48 442.658 4106.79 405.273C4076.77 367.888 4035.4 349.195 3982.7 349.195C3929.33 349.195 3887.63 367.888 3857.61 405.273C3827.59 441.99 3812.58 496.732 3812.58 569.499C3812.58 642.267 3827.59 697.343 3857.61 734.728C3887.63 772.113 3929.33 790.805 3982.7 790.805Z" fill="#3C55AC"/>
<path d="M1951.84 1183.46H2058.1C2085.27 1183.46 2106.37 1190.13 2121.41 1203.47C2136.45 1216.81 2143.97 1235.73 2143.97 1260.24C2143.97 1284.5 2136.45 1303.42 2121.41 1317C2106.37 1330.59 2085.27 1337.38 2058.1 1337.38H1989.32V1440H1951.84V1183.46ZM2054.09 1307.18C2090 1307.18 2107.95 1291.53 2107.95 1260.24C2107.95 1229.18 2090 1213.66 2054.09 1213.66H1989.32V1307.18H2054.09ZM2358 1440L2330.71 1376.68H2200.8L2173.5 1440H2135.66L2249.92 1183.46H2281.22L2395.48 1440H2358ZM2213.53 1346.84H2317.97L2265.93 1225.3L2213.53 1346.84ZM2637.24 1440H2595.76L2552.09 1357.76C2547.24 1349.03 2541.42 1342.96 2534.62 1339.57C2528.07 1335.93 2519.34 1334.11 2508.42 1334.11H2466.21V1440H2429.09V1183.46H2538.26C2566.65 1183.46 2588.24 1189.76 2603.03 1202.38C2618.08 1214.99 2625.6 1233.43 2625.6 1257.69C2625.6 1277.34 2620.02 1293.47 2608.86 1306.09C2597.94 1318.7 2582.29 1326.71 2561.91 1330.1C2574.53 1333.99 2584.96 1343.45 2593.21 1358.49L2637.24 1440ZM2533.89 1303.9C2552.82 1303.9 2566.77 1300.27 2575.74 1292.99C2584.96 1285.47 2589.57 1273.94 2589.57 1258.42C2589.57 1242.89 2585.08 1231.61 2576.11 1224.58C2567.13 1217.3 2553.06 1213.66 2533.89 1213.66H2465.85V1303.9H2533.89ZM2734.36 1440V1214.75H2647.76V1183.46H2859.18V1214.75H2772.21V1440H2734.36ZM3068.95 1183.46H3104.25V1440H3075.5L2928.85 1246.41V1440H2893.55V1183.46H2921.94L3068.95 1377.41V1183.46ZM3163.99 1440V1183.46H3330.65V1213.66H3200.74V1294.44H3323.37V1325.01H3200.74V1409.8H3330.65V1440H3163.99ZM3585 1440H3543.51L3499.85 1357.76C3494.99 1349.03 3489.17 1342.96 3482.38 1339.57C3475.83 1335.93 3467.1 1334.11 3456.18 1334.11H3413.97V1440H3376.85V1183.46H3486.02C3514.4 1183.46 3535.99 1189.76 3550.79 1202.38C3565.83 1214.99 3573.35 1233.43 3573.35 1257.69C3573.35 1277.34 3567.77 1293.47 3556.61 1306.09C3545.7 1318.7 3530.05 1326.71 3509.67 1330.1C3522.29 1333.99 3532.72 1343.45 3540.97 1358.49L3585 1440ZM3481.65 1303.9C3500.57 1303.9 3514.52 1300.27 3523.5 1292.99C3532.72 1285.47 3537.33 1273.94 3537.33 1258.42C3537.33 1242.89 3532.84 1231.61 3523.86 1224.58C3514.89 1217.3 3500.82 1213.66 3481.65 1213.66H3413.6V1303.9H3481.65ZM3912.54 1183.46H3950.75L3837.58 1440H3805.92L3693.11 1183.46H3732.05L3822.29 1392.69L3912.54 1183.46ZM4151.52 1440L4124.23 1376.68H3994.32L3967.03 1440H3929.18L4043.45 1183.46H4074.74L4189 1440H4151.52ZM4007.06 1346.84H4111.49L4059.46 1225.3L4007.06 1346.84Z" fill="#3C55AC"/>
<mask id="mask0" mask-type="alpha" maskUnits="userSpaceOnUse" x="876" y="879" width="570" height="570">
<path d="M1161 1449C1004.03 1449 876 1320.97 876 1164C876 1007.03 1004.03 879 1161 879C1317.97 879 1446 1007.03 1446 1164C1446 1320.97 1317.97 1449 1161 1449Z" fill="#3C55AC"/>
</mask>
<g mask="url(#mask0)">
<path fill-rule="evenodd" clip-rule="evenodd" d="M1584.67 840.73H737.324V1487.27H1584.67V840.73ZM1011 1281.57H1219.7L1310.3 1047.67C1310.3 1047.67 1253.3 1045.27 1238.3 1049.57C1223.3 1053.87 1011 1281.57 1011 1281.57Z" fill="#3C55AC"/>
<path d="M1176.04 823.113C1354.29 823.113 1500.24 976.806 1500.24 1164.5C1500.24 1352.2 1354.29 1505.89 1176.04 1505.89C997.788 1505.89 851.831 1352.2 851.831 1164.5C851.831 976.806 997.788 823.113 1176.04 823.113ZM1176.04 809.512C990.038 809.512 838.914 968.646 838.914 1164.5C838.914 1360.36 990.038 1519.49 1176.04 1519.49C1362.04 1519.49 1513.16 1360.36 1513.16 1164.5C1513.16 968.646 1362.04 809.512 1176.04 809.512Z" fill="#3C55AC"/>
<path d="M1161.48 889.92C1311.92 889.92 1435.1 1013.31 1435.1 1164C1435.1 1314.69 1311.92 1438.08 1161.48 1438.08C1011.04 1438.08 887.858 1314.69 887.858 1164C887.858 1013.31 1011.04 889.92 1161.48 889.92ZM1161.48 879C1004.5 879 876.957 1006.76 876.957 1164C876.957 1321.24 1004.5 1449 1161.48 1449C1318.46 1449 1446 1321.24 1446 1164C1446 1006.76 1318.46 879 1161.48 879Z" fill="#3C55AC"/>
</g>
<path fill-rule="evenodd" clip-rule="evenodd" d="M767.523 767.466C767.249 767.431 732.137 762.968 728.023 762.789C727.621 762.772 727.129 762.752 726.567 762.729C723.372 762.6 717.914 762.379 713.926 762.121C711.171 761.942 707.997 759.624 707.886 756.865C707.829 755.452 707.815 753.831 707.8 752.167C707.788 750.727 707.775 749.254 707.734 747.857C707.734 741.776 708.403 731.837 708.773 729.542C708.796 729.398 708.864 729.217 708.942 729.094C709.177 728.724 709.593 728.608 710.03 728.608H717.789C719.004 728.608 719.044 731.634 718.883 733.461C718.872 733.584 718.865 733.702 718.861 733.825C718.82 735.467 718.507 747.797 718.507 749.476C718.507 751.275 721.918 752.714 726.228 752.534C730.496 752.356 767.537 750.236 768.233 750.196C768.255 750.195 768.226 750.196 768.248 750.195C768.951 750.164 845.668 746.776 853.711 746.418C861.791 746.058 863.048 734.185 862.868 725.01C862.757 719.306 861.535 713.74 860.626 710.346C860.086 708.329 858.252 706.987 856.164 706.939L846.815 706.721C845.389 706.688 844.28 705.469 844.381 704.045C844.477 702.696 845.629 701.669 846.98 701.726L870.058 702.713C872.37 702.812 874.228 704.554 875.362 706.571C876.179 708.027 877.417 709.358 879.208 709.358C880.323 709.358 881.124 708.885 881.698 708.205C881.81 708.073 881.923 707.938 882.037 707.803C883.742 705.771 885.638 703.512 888.243 703.607C890.906 703.704 893.005 705.906 892.963 708.571C892.895 712.975 892.784 719.29 892.674 722.491C892.674 727.888 895.008 732.925 898.42 733.105C899.803 733.165 900.803 732.56 901.522 731.728C903.223 729.76 905.268 727.612 907.868 727.72L915.714 728.048C918.392 728.16 920.395 730.439 921.33 732.951C921.994 734.734 923.192 736.343 925.353 736.343C927.545 736.506 928.893 734.94 929.712 733.175C930.831 730.763 933.003 728.683 935.66 728.778L986.259 730.6C987.98 730.662 989.282 731.876 990.598 733.104C991.279 733.74 991.964 734.379 992.713 734.864C993.097 735.112 993.561 735.264 994.122 735.264C995.144 735.264 995.985 734.8 996.652 734.183C998.251 732.702 1000.09 731.167 1002.27 731.227L1022.49 731.782C1023.97 731.822 1025.39 731.205 1026.37 730.095L1026.77 729.649C1028.71 727.447 1032.14 727.381 1034.37 729.3C1037.67 732.144 1042.37 735.549 1045.83 735.444C1051.76 735.444 1061.46 727.348 1065.23 718.893C1066.9 715.147 1067.83 711.895 1068.34 709.435C1068.91 706.739 1071.19 704.495 1073.95 704.487C1096.98 704.419 1192.91 704.141 1202.23 704.141C1212.82 703.961 1213.9 676.617 1213.18 678.416C1212.76 679.47 1211.41 683.055 1210.37 685.844C1209.59 687.941 1207.51 689.264 1205.28 689.083L1061.08 677.36C1059.51 677.232 1058.09 676.361 1057.02 675.2C1054.87 672.857 1050.46 669.186 1043.68 668.701C1037.3 668.244 1032.8 671.047 1030.36 673.157C1028.94 674.388 1027.07 675.168 1025.21 674.868L902.681 655.067C901.129 654.816 899.785 653.846 898.866 652.571C896.149 648.806 889.25 641.266 877.412 640.996C870.456 640.725 866.5 642.503 864.286 644.336C862.281 645.996 859.548 647.651 856.986 647.196C729.885 624.638 717.156 611.212 715.938 609.23C715.834 609.06 715.804 608.886 715.784 608.688C715.551 606.383 714.018 590.317 714.018 566.878C714.018 472.79 674.337 419 658.356 419C658.296 419 658.236 419.005 658.176 419.016C658.117 419.006 658.057 419 657.997 419C642.017 419 602.336 472.79 602.336 566.878C602.336 590.318 600.802 606.384 600.57 608.689C600.55 608.887 600.52 609.061 600.416 609.23C599.198 611.212 586.469 624.638 459.368 647.197C456.805 647.651 454.072 645.996 452.068 644.336C449.854 642.503 445.898 640.725 438.941 640.997C427.104 641.266 420.204 648.806 417.488 652.571C416.568 653.846 415.225 654.817 413.673 655.067L291.143 674.868C289.286 675.168 287.415 674.388 285.992 673.157C283.555 671.047 279.054 668.245 272.674 668.701C265.898 669.186 261.487 672.857 259.33 675.2C258.262 676.362 256.845 677.232 255.272 677.36L111.078 689.083C108.847 689.264 106.767 687.942 105.984 685.844C104.942 683.055 103.597 679.47 103.176 678.416C102.458 676.617 103.535 703.962 114.129 704.141C123.443 704.141 219.371 704.42 242.405 704.487C245.161 704.495 247.441 706.739 248.009 709.436C248.527 711.896 249.457 715.147 251.128 718.893C254.899 727.349 264.594 735.444 270.52 735.444C273.987 735.549 278.683 732.144 281.984 729.3C284.21 727.382 287.639 727.447 289.585 729.649L289.98 730.095C290.961 731.205 292.383 731.823 293.863 731.782L314.083 731.227C316.262 731.167 318.103 732.702 319.702 734.183C320.368 734.8 321.209 735.264 322.231 735.264C322.793 735.264 323.257 735.112 323.64 734.864C324.389 734.38 325.075 733.74 325.756 733.104C327.072 731.877 328.373 730.662 330.095 730.6L380.693 728.778C383.351 728.683 385.523 730.763 386.642 733.176C387.461 734.94 388.808 736.506 391.001 736.344C393.162 736.344 394.36 734.734 395.023 732.951C395.958 730.439 397.962 728.16 400.64 728.048L408.486 727.72C411.085 727.612 413.131 729.76 414.832 731.729C415.551 732.56 416.551 733.166 417.934 733.105C421.345 732.925 423.679 727.888 423.679 722.491C423.569 719.291 423.459 712.975 423.39 708.572C423.349 705.907 425.447 703.704 428.111 703.607C430.715 703.512 432.611 705.771 434.317 707.803C434.43 707.939 434.543 708.073 434.655 708.206C435.23 708.885 436.03 709.359 437.146 709.359C438.937 709.359 440.174 708.027 440.992 706.572C442.125 704.554 443.984 702.812 446.296 702.714L469.373 701.727C470.724 701.669 471.876 702.696 471.973 704.045C472.074 705.469 470.965 706.688 469.538 706.721L460.189 706.939C458.102 706.988 456.268 708.329 455.728 710.347C454.819 713.741 453.597 719.306 453.485 725.01C453.306 734.185 454.563 746.058 462.643 746.418C470.686 746.776 547.402 750.165 548.105 750.196C548.127 750.197 548.099 750.195 548.12 750.196C548.816 750.236 585.857 752.356 590.126 752.535C594.435 752.714 597.847 751.275 597.847 749.476C597.847 747.798 597.534 735.467 597.492 733.826C597.49 733.743 597.486 733.663 597.48 733.583C597.477 733.543 597.474 733.502 597.47 733.461C597.309 731.635 597.35 728.608 598.565 728.608H606.323C606.761 728.608 607.177 728.724 607.411 729.094C607.49 729.217 607.558 729.398 607.581 729.542C607.95 731.837 608.62 741.776 608.62 747.857C608.579 749.254 608.566 750.727 608.553 752.167C608.539 753.831 608.525 755.452 608.468 756.865C608.357 759.624 605.181 761.94 602.426 762.118C598.603 762.365 593.436 762.578 590.233 762.709C589.474 762.741 588.825 762.767 588.33 762.789C584.217 762.968 549.104 767.431 548.83 767.466C548.822 767.467 548.836 767.465 548.828 767.466C548.552 767.5 473.592 776.642 471.62 777.001C469.645 777.361 469.825 780.779 471.62 780.779C471.915 780.779 473.581 780.881 476.301 781.047C490.137 781.894 531.246 784.409 557.806 783.657C585.072 782.736 618.609 781.554 627.875 781.226C629.444 781.171 630.925 781.854 631.954 783.04C635.808 787.481 645.863 798.391 654.092 801.405C653.373 801.901 653.137 802.187 654.154 802.187H657.943C657.961 802.187 657.979 802.187 657.997 802.187H662.2C663.217 802.187 662.98 801.901 662.262 801.405C670.491 798.392 680.546 787.481 684.4 783.039C685.429 781.853 686.91 781.17 688.479 781.226C697.744 781.553 731.282 782.736 758.547 783.657C785.108 784.409 826.217 781.893 840.053 781.047C842.773 780.88 844.438 780.779 844.733 780.779C846.529 780.779 846.708 777.361 844.733 777.001C842.762 776.642 767.801 767.5 767.526 767.466L767.523 767.466Z" fill="#3C55AC"/>
<path d="M660 0C295.5 0 0 295.5 0 660C0 1024.5 295.5 1320 660 1320C713.4 1320 765.3 1313.7 815 1301.7C808.9 1285.6 803.8 1268.9 800 1251.8C755 1262.4 708.2 1268 660 1268C324.2 1268 52 995.8 52 660C52 324.2 324.2 52 660 52C995.8 52 1268 324.2 1268 660C1268 711.5 1261.6 761.6 1249.5 809.4C1266.5 813.5 1283.1 818.8 1299.1 825.2C1312.8 772.4 1320 717 1320 660C1320 295.5 1024.5 0 660 0Z" fill="#3C55AC"/>
</svg>
